<svg id="圖層_1" data-name="圖層 1" xmlns="http://www.w3.org/2000/svg" xmlns:xlink="http://www.w3.org/1999/xlink" viewBox="0 0 1327.22 753.22"><defs><style>.cls-1{opacity:0.2;}.cls-2{fill:#231815;}.cls-3{stroke:#ceb29f;stroke-miterlimit:10;stroke-width:6px;fill:url(#未命名漸層_225);}.cls-4{fill:#c9caca;}</style><linearGradient id="未命名漸層_225" x1="3" y1="369.94" x2="1313.22" y2="369.94" gradientUnits="userSpaceOnUse"><stop offset="0.46" stop-color="#f4f1ea"/><stop offset="0.5" stop-color="#f0ece0"/><stop offset="0.54" stop-color="#f4f1ea"/></linearGradient></defs><title>book_background</title><g class="cls-1"><path class="cls-2" d="M1305,1,15.57,22A10.3,10.3,0,0,0,5.36,32.37L1.11,743.17a10.29,10.29,0,0,0,10.54,10.05l1305.37-14a10.29,10.29,0,0,0,10.2-10.38L1315.54,11A10.3,10.3,0,0,0,1305,1Z"/></g><path class="cls-3" d="M1307.52,3H8.71A5.71,5.71,0,0,0,3,8.71V731.17a5.7,5.7,0,0,0,5.71,5.7H1307.52a5.69,5.69,0,0,0,5.7-5.7V8.71A5.7,5.7,0,0,0,1307.52,3Z"/><rect class="cls-4" x="656.25" y="6" width="2.66" height="727.63"/></svg>